{
  "source": "C:\\Users\\Peter\\Desktop\\stuff\\MIUN\\quantitative_research\\video_compression\\videos\\BVI-HD\\BVI-HD_CDVL_videos\\ORIG\\DiverFishAndRock_1920x1080_30fps.mp4",
  "output": "C:\\Users\\Peter\\Desktop\\stuff\\MIUN\\quantitative_research\\video_compression\\compressed_videos\\BVI-HD\\hevc\\1\\DiverFishAndRock_1920x1080_30fps_hevc.mp4",
  "codec": "hevc",
  "ok": "Input #0, mov,mp4,m4a,3gp,3g2,mj2, from 'C:\\Users\\Peter\\Desktop\\stuff\\MIUN\\quantitative_research\\video_compression\\videos\\BVI-HD\\BVI-HD_CDVL_videos\\ORIG\\DiverFishAndRock_1920x1080_30fps.mp4':\n  Metadata:\n    major_brand     : isom\n    minor_version   : 512\n    compatible_brands: isomiso2avc1mp41\n    encoder         : Lavf54.28.101\n  Duration: 00:00:05.00, start: 0.000000, bitrate: 228854 kb/s\n  Stream #0:0[0x1](und): Video: h264 (High 4:4:4 Predictive) (avc1 / 0x31637661), yuv420p(progressive), 1920x1080, 228851 kb/s, 30 fps, 30 tbr, 30 tbn (default)\n    Metadata:\n      handler_name    : VideoHandler\n      vendor_id       : [0][0][0][0]\n[out#0/mp4 @ 00000276912fa980] Codec AVOption b:a (set bitrate (in bits/s)) has not been used for any stream. The most likely reason is either wrong type (e.g. a video option with no video streams) or that it is a private option of some decoder which was not actually used for any stream.\nStream mapping:\n  Stream #0:0 -> #0:0 (h264 (native) -> hevc (libx265))\nPress [q] to stop, [?] for help\n[libx265 @ 0000027691c5b7c0] Unknown option: \"aq-mode.\nx265 [info]: HEVC encoder version 4.1+190-8f11c33ac\nx265 [info]: build info [Windows][GCC 15.1.0][64 bit] 10bit\nx265 [info]: using cpu capabilities: MMX2 SSE2Fast LZCNT SSSE3 SSE4.2 AVX FMA3 BMI2 AVX2\nx265 [info]: Main 10 profile, Level-4 (Main tier)\nx265 [info]: Thread pool created using 12 threads\nx265 [info]: Slices                              : 1\nx265 [info]: frame threads / pool features       : 3 / wpp(17 rows)\nx265 [info]: Coding QT: max CU size, min CU size : 64 / 8\nx265 [info]: Residual QT: max TU size, max depth : 32 / 1 inter / 1 intra\nx265 [info]: ME / range / subpel / merge         : star / 57 / 3 / 3\nx265 [info]: Keyframe min / max / scenecut / bias  : 25 / 250 / 40 / 5.00 \nx265 [info]: Lookahead / bframes / badapt        : 25 / 4 / 2\nx265 [info]: b-pyramid / weightp / weightb       : 1 / 1 / 0\nx265 [info]: References / ref-limit  cu / depth  : 4 / on / on\nx265 [info]: AQ: mode / str / qg-size / cu-tree  : 2 / 1.0 / 32 / 1\nx265 [info]: Rate Control / qCompress            : ABR-1000 kbps / 0.60\nx265 [info]: VBV/HRD buffer / max-rate / init    : 1000 / 1000 / 0.750\nx265 [info]: tools: rect limit-modes rd=4 psy-rd=2.00 rdoq=2 psy-rdoq=1.00\nx265 [info]: tools: rskip mode=1 signhide tmvp strong-intra-smoothing lslices=4\nx265 [info]: tools: deblock sao dhdr10-info\nOutput #0, mp4, to 'C:\\Users\\Peter\\Desktop\\stuff\\MIUN\\quantitative_research\\video_compression\\compressed_videos\\BVI-HD\\hevc\\1\\DiverFishAndRock_1920x1080_30fps_hevc.mp4':\n  Metadata:\n    major_brand     : isom\n    minor_version   : 512\n    compatible_brands: isomiso2avc1mp41\n    encoder         : Lavf62.3.100\n  Stream #0:0(und): Video: hevc (hev1 / 0x31766568), yuv420p10le(tv, progressive), 1920x1080, q=2-31, 1000 kb/s, 30 fps, 15360 tbn (default)\n    Metadata:\n      encoder         : Lavc62.11.100 libx265\n      handler_name    : VideoHandler\n      vendor_id       : [0][0][0][0]\n    Side data:\n      cpb: bitrate max/min/avg: 1000000/0/1000000 buffer size: 1000000 vbv_delay: N/A\nframe=    0 fps=0.0 q=0.0 size=       0KiB time=N/A bitrate=N/A speed=N/A elapsed=0:00:00.53    \nframe=    0 fps=0.0 q=0.0 size=       0KiB time=N/A bitrate=N/A speed=N/A elapsed=0:00:01.19    \nframe=    0 fps=0.0 q=0.0 size=       0KiB time=N/A bitrate=N/A speed=N/A elapsed=0:00:01.75    \nframe=    0 fps=0.0 q=0.0 size=       0KiB time=N/A bitrate=N/A speed=N/A elapsed=0:00:02.27    \nframe=    0 fps=0.0 q=0.0 size=       0KiB time=N/A bitrate=N/A speed=N/A elapsed=0:00:02.79    \nframe=    0 fps=0.0 q=0.0 size=       0KiB time=N/A bitrate=N/A speed=N/A elapsed=0:00:03.31    \nframe=    0 fps=0.0 q=0.0 size=       0KiB time=N/A bitrate=N/A speed=N/A elapsed=0:00:03.84    \nframe=    0 fps=0.0 q=0.0 size=       0KiB time=N/A bitrate=N/A speed=N/A elapsed=0:00:04.38    \nframe=    0 fps=0.0 q=0.0 size=       0KiB time=N/A bitrate=N/A speed=N/A elapsed=0:00:04.90    \nframe=    0 fps=0.0 q=0.0 size=       0KiB time=N/A bitrate=N/A speed=N/A elapsed=0:00:05.44    \nframe=    0 fps=0.0 q=0.0 size=       0KiB time=N/A bitrate=N/A speed=N/A elapsed=0:00:05.96    \nframe=    0 fps=0.0 q=0.0 size=       0KiB time=N/A bitrate=N/A speed=N/A elapsed=0:00:06.51    \nframe=    0 fps=0.0 q=0.0 size=       0KiB time=N/A bitrate=N/A speed=N/A elapsed=0:00:07.06    \nframe=    0 fps=0.0 q=0.0 size=       0KiB time=N/A bitrate=N/A speed=N/A elapsed=0:00:07.57    \nframe=    0 fps=0.0 q=0.0 size=       0KiB time=N/A bitrate=N/A speed=N/A elapsed=0:00:08.10    \nframe=    1 fps=0.1 q=41.2 size=       0KiB time=-00:00:00.03 bitrate=N/A speed=N/A elapsed=0:00:08.64    \nframe=    1 fps=0.1 q=41.2 size=       0KiB time=-00:00:00.03 bitrate=N/A speed=N/A elapsed=0:00:09.16    \nframe=    3 fps=0.3 q=49.0 size=       0KiB time=00:00:00.03 bitrate=  10.6kbits/s speed=0.00344x elapsed=0:00:09.69    \nframe=    3 fps=0.3 q=49.0 size=       0KiB time=00:00:00.03 bitrate=  10.6kbits/s speed=0.00326x elapsed=0:00:10.22    \nframe=    3 fps=0.3 q=49.0 size=       0KiB time=00:00:00.03 bitrate=  10.6kbits/s speed=0.00311x elapsed=0:00:10.72    \nframe=    4 fps=0.4 q=50.4 size=       0KiB time=00:00:00.06 bitrate=   5.3kbits/s speed=0.00593x elapsed=0:00:11.24    \nframe=    5 fps=0.4 q=48.5 size=       0KiB time=00:00:00.10 bitrate=   3.5kbits/s speed=0.0085x elapsed=0:00:11.76    \nframe=    5 fps=0.4 q=48.5 size=       0KiB time=00:00:00.10 bitrate=   3.5kbits/s speed=0.00815x elapsed=0:00:12.27    \nframe=    6 fps=0.5 q=42.6 size=       0KiB time=00:00:00.13 bitrate=   2.6kbits/s speed=0.0104x elapsed=0:00:12.78    \nframe=    6 fps=0.5 q=42.6 size=       0KiB time=00:00:00.13 bitrate=   2.6kbits/s speed=0.01x elapsed=0:00:13.31    \nframe=    6 fps=0.4 q=42.6 size=       0KiB time=00:00:00.13 bitrate=   2.6kbits/s speed=0.00962x elapsed=0:00:13.86    \nframe=    7 fps=0.5 q=46.0 size=       0KiB time=00:00:00.16 bitrate=   2.1kbits/s speed=0.0116x elapsed=0:00:14.37    \nframe=    7 fps=0.5 q=46.0 size=       0KiB time=00:00:00.16 bitrate=   2.1kbits/s speed=0.0112x elapsed=0:00:14.89    \nframe=    8 fps=0.5 q=45.8 size=       0KiB time=00:00:00.20 bitrate=   1.8kbits/s speed=0.013x elapsed=0:00:15.42    \nframe=    8 fps=0.5 q=45.8 size=       0KiB time=00:00:00.20 bitrate=   1.8kbits/s speed=0.0125x elapsed=0:00:15.94    \nframe=    8 fps=0.5 q=45.8 size=       0KiB time=00:00:00.20 bitrate=   1.8kbits/s speed=0.0121x elapsed=0:00:16.46    \nframe=    9 fps=0.5 q=45.3 size=       0KiB time=00:00:00.23 bitrate=   1.5kbits/s speed=0.0137x elapsed=0:00:16.98    \nframe=   10 fps=0.6 q=40.4 size=       0KiB time=00:00:00.26 bitrate=   1.3kbits/s speed=0.0152x elapsed=0:00:17.49    \nframe=   10 fps=0.6 q=40.4 size=       0KiB time=00:00:00.26 bitrate=   1.3kbits/s speed=0.0148x elapsed=0:00:18.00    \nframe=   11 fps=0.6 q=45.0 size=       0KiB time=00:00:00.30 bitrate=   1.2kbits/s speed=0.0162x elapsed=0:00:18.52    \nframe=   12 fps=0.6 q=45.4 size=       0KiB time=00:00:00.33 bitrate=   1.1kbits/s speed=0.0175x elapsed=0:00:19.04    \nframe=   12 fps=0.6 q=45.4 size=       0KiB time=00:00:00.33 bitrate=   1.1kbits/s speed=0.017x elapsed=0:00:19.57    \nframe=   12 fps=0.6 q=45.4 size=       0KiB time=00:00:00.33 bitrate=   1.1kbits/s speed=0.0166x elapsed=0:00:20.08    \nframe=   13 fps=0.6 q=45.5 size=       0KiB time=00:00:00.36 bitrate=   1.0kbits/s speed=0.0178x elapsed=0:00:20.61    \nframe=   13 fps=0.6 q=45.5 size=       0KiB time=00:00:00.36 bitrate=   1.0kbits/s speed=0.0173x elapsed=0:00:21.15    \nframe=   13 fps=0.6 q=45.5 size=       0KiB time=00:00:00.36 bitrate=   1.0kbits/s speed=0.0169x elapsed=0:00:21.67    \nframe=   15 fps=0.7 q=40.2 size=       0KiB time=00:00:00.43 bitrate=   0.8kbits/s speed=0.0195x elapsed=0:00:22.20    \nframe=   15 fps=0.7 q=40.2 size=       0KiB time=00:00:00.43 bitrate=   0.8kbits/s speed=0.0191x elapsed=0:00:22.74    \nframe=   15 fps=0.6 q=40.2 size=       0KiB time=00:00:00.43 bitrate=   0.8kbits/s speed=0.0186x elapsed=0:00:23.30    \nframe=   15 fps=0.6 q=40.2 size=       0KiB time=00:00:00.43 bitrate=   0.8kbits/s speed=0.0181x elapsed=0:00:23.89    \nframe=   16 fps=0.7 q=43.5 size=       0KiB time=00:00:00.46 bitrate=   0.8kbits/s speed=0.0191x elapsed=0:00:24.44    \nframe=   16 fps=0.6 q=43.5 size=       0KiB time=00:00:00.46 bitrate=   0.8kbits/s speed=0.0187x elapsed=0:00:24.97    \nframe=   17 fps=0.7 q=45.4 size=       0KiB time=00:00:00.50 bitrate=   0.7kbits/s speed=0.0196x elapsed=0:00:25.51    \nframe=   17 fps=0.7 q=45.4 size=       0KiB time=00:00:00.50 bitrate=   0.7kbits/s speed=0.0192x elapsed=0:00:26.08    \nframe=   17 fps=0.6 q=45.4 size=       0KiB time=00:00:00.50 bitrate=   0.7kbits/s speed=0.0188x elapsed=0:00:26.62    \nframe=   17 fps=0.6 q=45.4 size=       0KiB time=00:00:00.50 bitrate=   0.7kbits/s speed=0.0184x elapsed=0:00:27.16    \nframe=   17 fps=0.6 q=45.4 size=       0KiB time=00:00:00.50 bitrate=   0.7kbits/s speed=0.0181x elapsed=0:00:27.69    \nframe=   18 fps=0.6 q=44.7 size=       0KiB time=00:00:00.53 bitrate=   0.7kbits/s speed=0.0189x elapsed=0:00:28.21    \nframe=   18 fps=0.6 q=44.7 size=       0KiB time=00:00:00.53 bitrate=   0.7kbits/s speed=0.0186x elapsed=0:00:28.73    \nframe=   18 fps=0.6 q=44.7 size=       0KiB time=00:00:00.53 bitrate=   0.7kbits/s speed=0.0182x elapsed=0:00:29.29    \nframe=   18 fps=0.6 q=44.7 size=       0KiB time=00:00:00.53 bitrate=   0.7kbits/s speed=0.0179x elapsed=0:00:29.84    \nframe=   18 fps=0.6 q=44.7 size=       0KiB time=00:00:00.53 bitrate=   0.7kbits/s speed=0.0175x elapsed=0:00:30.40    \nframe=   18 fps=0.6 q=44.7 size=       0KiB time=00:00:00.53 bitrate=   0.7kbits/s speed=0.0172x elapsed=0:00:30.92    \nframe=   19 fps=0.6 q=39.2 size=       0KiB time=00:00:00.56 bitrate=   0.6kbits/s speed=0.018x elapsed=0:00:31.44    \nframe=   19 fps=0.6 q=39.2 size=       0KiB time=00:00:00.56 bitrate=   0.6kbits/s speed=0.0177x elapsed=0:00:31.97    \nframe=   19 fps=0.6 q=39.2 size=       0KiB time=00:00:00.56 bitrate=   0.6kbits/s speed=0.0174x elapsed=0:00:32.53    \nframe=   19 fps=0.6 q=39.2 size=       0KiB time=00:00:00.56 bitrate=   0.6kbits/s speed=0.0171x elapsed=0:00:33.11    \nframe=   19 fps=0.6 q=39.2 size=       0KiB time=00:00:00.56 bitrate=   0.6kbits/s speed=0.0168x elapsed=0:00:33.64    \nframe=   19 fps=0.6 q=39.2 size=       0KiB time=00:00:00.56 bitrate=   0.6kbits/s speed=0.0166x elapsed=0:00:34.17    \nframe=   19 fps=0.5 q=39.2 size=       0KiB time=00:00:00.56 bitrate=   0.6kbits/s speed=0.0163x elapsed=0:00:34.69    \nframe=   20 fps=0.6 q=43.5 size=       0KiB time=00:00:00.60 bitrate=   0.6kbits/s speed=0.017x elapsed=0:00:35.21    \nframe=   20 fps=0.6 q=43.5 size=       0KiB time=00:00:00.60 bitrate=   0.6kbits/s speed=0.0168x elapsed=0:00:35.76    \nframe=   20 fps=0.6 q=43.5 size=       0KiB time=00:00:00.60 bitrate=   0.6kbits/s speed=0.0165x elapsed=0:00:36.32    \nframe=   20 fps=0.5 q=43.5 size=       0KiB time=00:00:00.60 bitrate=   0.6kbits/s speed=0.0163x elapsed=0:00:36.87    \nframe=   20 fps=0.5 q=43.5 size=       0KiB time=00:00:00.60 bitrate=   0.6kbits/s speed=0.016x elapsed=0:00:37.42    \nframe=   20 fps=0.5 q=43.5 size=       0KiB time=00:00:00.60 bitrate=   0.6kbits/s speed=0.0158x elapsed=0:00:37.95    \nframe=   21 fps=0.5 q=44.7 size=       0KiB time=00:00:00.63 bitrate=   0.6kbits/s speed=0.0164x elapsed=0:00:38.53    \nframe=   21 fps=0.5 q=44.7 size=       0KiB time=00:00:00.63 bitrate=   0.6kbits/s speed=0.0162x elapsed=0:00:39.08    \nframe=   21 fps=0.5 q=44.7 size=       0KiB time=00:00:00.63 bitrate=   0.6kbits/s speed=0.016x elapsed=0:00:39.63    \nframe=   21 fps=0.5 q=44.7 size=       0KiB time=00:00:00.63 bitrate=   0.6kbits/s speed=0.0158x elapsed=0:00:40.20    \nframe=   21 fps=0.5 q=44.7 size=       0KiB time=00:00:00.63 bitrate=   0.6kbits/s speed=0.0155x elapsed=0:00:40.74    \nframe=   21 fps=0.5 q=44.7 size=       0KiB time=00:00:00.63 bitrate=   0.6kbits/s speed=0.0153x elapsed=0:00:41.26    \nframe=   21 fps=0.5 q=44.7 size=       0KiB time=00:00:00.63 bitrate=   0.6kbits/s speed=0.0152x elapsed=0:00:41.79    \nframe=   22 fps=0.5 q=44.7 size=       0KiB time=00:00:00.66 bitrate=   0.5kbits/s speed=0.0158x elapsed=0:00:42.30    \nframe=   23 fps=0.5 q=38.8 size=       0KiB time=00:00:00.70 bitrate=   0.5kbits/s speed=0.0163x elapsed=0:00:42.81    \nframe=   23 fps=0.5 q=38.8 size=       0KiB time=00:00:00.70 bitrate=   0.5kbits/s speed=0.0162x elapsed=0:00:43.34    \nframe=   24 fps=0.5 q=42.0 size=       0KiB time=00:00:00.73 bitrate=   0.5kbits/s speed=0.0167x elapsed=0:00:43.86    \nframe=   24 fps=0.5 q=42.0 size=       0KiB time=00:00:00.73 bitrate=   0.5kbits/s speed=0.0165x elapsed=0:00:44.39    \nframe=   24 fps=0.5 q=42.0 size=       0KiB time=00:00:00.73 bitrate=   0.5kbits/s speed=0.0163x elapsed=0:00:44.93    \nframe=   24 fps=0.5 q=42.0 size=       0KiB time=00:00:00.73 bitrate=   0.5kbits/s speed=0.0161x elapsed=0:00:45.48    \nframe=   24 fps=0.5 q=42.0 size=       0KiB time=00:00:00.73 bitrate=   0.5kbits/s speed=0.0159x elapsed=0:00:46.05    \nframe=   24 fps=0.5 q=42.0 size=       0KiB time=00:00:00.73 bitrate=   0.5kbits/s speed=0.0157x elapsed=0:00:46.59    \nframe=   25 fps=0.5 q=44.4 size=       0KiB time=00:00:00.76 bitrate=   0.5kbits/s speed=0.0163x elapsed=0:00:47.13    \nframe=   25 fps=0.5 q=44.4 size=       0KiB time=00:00:00.76 bitrate=   0.5kbits/s speed=0.0161x elapsed=0:00:47.71    \nframe=   25 fps=0.5 q=44.4 size=       0KiB time=00:00:00.76 bitrate=   0.5kbits/s speed=0.0159x elapsed=0:00:48.25    \nframe=   25 fps=0.5 q=44.4 size=       0KiB time=00:00:00.76 bitrate=   0.5kbits/s speed=0.0157x elapsed=0:00:48.83    \nframe=   25 fps=0.5 q=44.4 size=       0KiB time=00:00:00.76 bitrate=   0.5kbits/s speed=0.0155x elapsed=0:00:49.37    \nframe=   25 fps=0.5 q=44.4 size=       0KiB time=00:00:00.76 bitrate=   0.5kbits/s speed=0.0154x elapsed=0:00:49.90    \nframe=   25 fps=0.5 q=44.4 size=       0KiB time=00:00:00.76 bitrate=   0.5kbits/s speed=0.0152x elapsed=0:00:50.41    \nframe=   25 fps=0.5 q=44.4 size=       0KiB time=00:00:00.76 bitrate=   0.5kbits/s speed=0.015x elapsed=0:00:50.97    \nframe=   25 fps=0.5 q=44.4 size=       0KiB time=00:00:00.76 bitrate=   0.5kbits/s speed=0.0149x elapsed=0:00:51.55    \nframe=   25 fps=0.5 q=44.4 size=       0KiB time=00:00:00.76 bitrate=   0.5kbits/s speed=0.0147x elapsed=0:00:52.10    \nframe=   26 fps=0.5 q=44.1 size=       0KiB time=00:00:00.80 bitrate=   0.4kbits/s speed=0.0152x elapsed=0:00:52.63    \nframe=   26 fps=0.5 q=44.1 size=       0KiB time=00:00:00.80 bitrate=   0.4kbits/s speed=0.0151x elapsed=0:00:53.14    \nframe=   26 fps=0.5 q=44.1 size=       0KiB time=00:00:00.80 bitrate=   0.4kbits/s speed=0.0149x elapsed=0:00:53.67    \nframe=   26 fps=0.5 q=44.1 size=       0KiB time=00:00:00.80 bitrate=   0.4kbits/s speed=0.0148x elapsed=0:00:54.20    \nframe=   27 fps=0.5 q=44.2 size=       0KiB time=00:00:00.83 bitrate=   0.4kbits/s speed=0.0152x elapsed=0:00:54.71    \nframe=   28 fps=0.5 q=39.4 size=       0KiB time=00:00:00.86 bitrate=   0.4kbits/s speed=0.0157x elapsed=0:00:55.26    \nframe=   29 fps=0.5 q=41.0 size=       0KiB time=00:00:00.90 bitrate=   0.4kbits/s speed=0.0161x elapsed=0:00:55.84    \nframe=   29 fps=0.5 q=41.0 size=       0KiB time=00:00:00.90 bitrate=   0.4kbits/s speed=0.016x elapsed=0:00:56.40    \nframe=   30 fps=0.5 q=45.0 size=       0KiB time=00:00:00.93 bitrate=   0.4kbits/s speed=0.0164x elapsed=0:00:56.92    \nframe=   30 fps=0.5 q=45.0 size=       0KiB time=00:00:00.93 bitrate=   0.4kbits/s speed=0.0162x elapsed=0:00:57.45    \nframe=   30 fps=0.5 q=45.0 size=       0KiB time=00:00:00.93 bitrate=   0.4kbits/s speed=0.0161x elapsed=0:00:57.99    \nframe=   31 fps=0.5 q=44.5 size=       0KiB time=00:00:00.96 bitrate=   0.4kbits/s speed=0.0165x elapsed=0:00:58.52    \nframe=   31 fps=0.5 q=44.5 size=       0KiB time=00:00:00.96 bitrate=   0.4kbits/s speed=0.0164x elapsed=0:00:59.04    \nframe=   32 fps=0.5 q=45.4 size=       0KiB time=00:00:01.00 bitrate=   0.4kbits/s speed=0.0168x elapsed=0:00:59.55    \nframe=   32 fps=0.5 q=45.4 size=       0KiB time=00:00:01.00 bitrate=   0.4kbits/s speed=0.0166x elapsed=0:01:00.09    \nframe=   32 fps=0.5 q=45.4 size=       0KiB time=00:00:01.00 bitrate=   0.4kbits/s speed=0.0165x elapsed=0:01:00.62    \nframe=   33 fps=0.5 q=39.3 size=       0KiB time=00:00:01.03 bitrate=   0.3kbits/s speed=0.0169x elapsed=0:01:01.13    \nframe=   34 fps=0.6 q=43.4 size=       0KiB time=00:00:01.06 bitrate=   0.3kbits/s speed=0.0173x elapsed=0:01:01.66    \nframe=   34 fps=0.5 q=43.4 size=       0KiB time=00:00:01.06 bitrate=   0.3kbits/s speed=0.0171x elapsed=0:01:02.20    \nframe=   34 fps=0.5 q=43.4 size=       0KiB time=00:00:01.06 bitrate=   0.3kbits/s speed=0.017x elapsed=0:01:02.74    \nframe=   35 fps=0.6 q=44.6 size=       0KiB time=00:00:01.10 bitrate=   0.3kbits/s speed=0.0174x elapsed=0:01:03.26    \nframe=   35 fps=0.5 q=44.6 size=       0KiB time=00:00:01.10 bitrate=   0.3kbits/s speed=0.0172x elapsed=0:01:03.77    \nframe=   35 fps=0.5 q=44.6 size=       0KiB time=00:00:01.10 bitrate=   0.3kbits/s speed=0.0171x elapsed=0:01:04.30    \nframe=   36 fps=0.6 q=44.5 size=       0KiB time=00:00:01.13 bitrate=   0.3kbits/s speed=0.0175x elapsed=0:01:04.84    \nframe=   37 fps=0.6 q=38.6 size=       0KiB time=00:00:01.16 bitrate=   0.3kbits/s speed=0.0179x elapsed=0:01:05.35    \nframe=   37 fps=0.6 q=38.6 size=       0KiB time=00:00:01.16 bitrate=   0.3kbits/s speed=0.0177x elapsed=0:01:05.87    \nframe=   38 fps=0.6 q=42.7 size=       0KiB time=00:00:01.20 bitrate=   0.3kbits/s speed=0.0181x elapsed=0:01:06.38    \nframe=   38 fps=0.6 q=42.7 size=       0KiB time=00:00:01.20 bitrate=   0.3kbits/s speed=0.0179x elapsed=0:01:06.90    \nframe=   38 fps=0.6 q=42.7 size=       0KiB time=00:00:01.20 bitrate=   0.3kbits/s speed=0.0178x elapsed=0:01:07.42    \nframe=   39 fps=0.6 q=44.6 size=       0KiB time=00:00:01.23 bitrate=   0.3kbits/s speed=0.0182x elapsed=0:01:07.92    \nframe=   39 fps=0.6 q=44.6 size=       0KiB time=00:00:01.23 bitrate=   0.3kbits/s speed=0.018x elapsed=0:01:08.44    \nframe=   39 fps=0.6 q=44.6 size=       0KiB time=00:00:01.23 bitrate=   0.3kbits/s speed=0.0179x elapsed=0:01:08.96    \nframe=   40 fps=0.6 q=44.4 size=       0KiB time=00:00:01.26 bitrate=   0.3kbits/s speed=0.0182x elapsed=0:01:09.47    \nframe=   40 fps=0.6 q=44.4 size=       0KiB time=00:00:01.26 bitrate=   0.3kbits/s speed=0.0181x elapsed=0:01:10.00    \nframe=   41 fps=0.6 q=38.4 size=       0KiB time=00:00:01.30 bitrate=   0.3kbits/s speed=0.0184x elapsed=0:01:10.54    \nframe=   41 fps=0.6 q=38.4 size=       0KiB time=00:00:01.30 bitrate=   0.3kbits/s speed=0.0183x elapsed=0:01:11.08    \nframe=   41 fps=0.6 q=38.4 size=       0KiB time=00:00:01.30 bitrate=   0.3kbits/s speed=0.0182x elapsed=0:01:11.62    \nframe=   42 fps=0.6 q=42.1 size=       0KiB time=00:00:01.33 bitrate=   0.3kbits/s speed=0.0185x elapsed=0:01:12.14    \nframe=   42 fps=0.6 q=42.1 size=       0KiB time=00:00:01.33 bitrate=   0.3kbits/s speed=0.0183x elapsed=0:01:12.67    \nframe=   43 fps=0.6 q=44.3 size=       0KiB time=00:00:01.36 bitrate=   0.3kbits/s speed=0.0187x elapsed=0:01:13.20    \nframe=   43 fps=0.6 q=44.3 size=       0KiB time=00:00:01.36 bitrate=   0.3kbits/s speed=0.0185x elapsed=0:01:13.71    \nframe=   43 fps=0.6 q=44.3 size=       0KiB time=00:00:01.36 bitrate=   0.3kbits/s speed=0.0184x elapsed=0:01:14.25    \nframe=   43 fps=0.6 q=44.3 size=       0KiB time=00:00:01.36 bitrate=   0.3kbits/s speed=0.0183x elapsed=0:01:14.83    \nframe=   43 fps=0.6 q=44.3 size=       0KiB time=00:00:01.36 bitrate=   0.3kbits/s speed=0.0181x elapsed=0:01:15.40    \nframe=   43 fps=0.6 q=44.3 size=       0KiB time=00:00:01.36 bitrate=   0.3kbits/s speed=0.018x elapsed=0:01:15.99    \nframe=   43 fps=0.6 q=44.3 size=       0KiB time=00:00:01.36 bitrate=   0.3kbits/s speed=0.0178x elapsed=0:01:16.62    \nframe=   43 fps=0.6 q=44.3 size=       0KiB time=00:00:01.36 bitrate=   0.3kbits/s speed=0.0177x elapsed=0:01:17.25    \nframe=   43 fps=0.6 q=44.3 size=       0KiB time=00:00:01.36 bitrate=   0.3kbits/s speed=0.0176x elapsed=0:01:17.83    \nframe=   43 fps=0.5 q=44.3 size=       0KiB time=00:00:01.36 bitrate=   0.3kbits/s speed=0.0174x elapsed=0:01:18.36    \nframe=   43 fps=0.5 q=44.3 size=       0KiB time=00:00:01.36 bitrate=   0.3kbits/s speed=0.0173x elapsed=0:01:18.92    \nframe=   43 fps=0.5 q=44.3 size=       0KiB time=00:00:01.36 bitrate=   0.3kbits/s speed=0.0172x elapsed=0:01:19.46    \nframe=   43 fps=0.5 q=44.3 size=       0KiB time=00:00:01.36 bitrate=   0.3kbits/s speed=0.0171x elapsed=0:01:20.03    \nframe=   44 fps=0.5 q=44.2 size=       0KiB time=00:00:01.40 bitrate=   0.3kbits/s speed=0.0174x elapsed=0:01:20.56    \nframe=   44 fps=0.5 q=44.2 size=       0KiB time=00:00:01.40 bitrate=   0.3kbits/s speed=0.0173x elapsed=0:01:21.07    \nframe=   44 fps=0.5 q=44.2 size=       0KiB time=00:00:01.40 bitrate=   0.3kbits/s speed=0.0171x elapsed=0:01:21.63    \nframe=   44 fps=0.5 q=44.2 size=       0KiB time=00:00:01.40 bitrate=   0.3kbits/s speed=0.017x elapsed=0:01:22.19    \nframe=   44 fps=0.5 q=44.2 size=       0KiB time=00:00:01.40 bitrate=   0.3kbits/s speed=0.0169x elapsed=0:01:22.74    \nframe=   44 fps=0.5 q=44.2 size=       0KiB time=00:00:01.40 bitrate=   0.3kbits/s speed=0.0168x elapsed=0:01:23.26    \nframe=   45 fps=0.5 q=44.5 size=       0KiB time=00:00:01.43 bitrate=   0.2kbits/s speed=0.0171x elapsed=0:01:23.80    \nframe=   45 fps=0.5 q=44.5 size=       0KiB time=00:00:01.43 bitrate=   0.2kbits/s speed=0.017x elapsed=0:01:24.38    \nframe=   45 fps=0.5 q=44.5 size=       0KiB time=00:00:01.43 bitrate=   0.2kbits/s speed=0.0169x elapsed=0:01:24.93    \nframe=   45 fps=0.5 q=44.5 size=       0KiB time=00:00:01.43 bitrate=   0.2kbits/s speed=0.0168x elapsed=0:01:25.45    \nframe=   45 fps=0.5 q=44.5 size=       0KiB time=00:00:01.43 bitrate=   0.2kbits/s speed=0.0167x elapsed=0:01:25.96    \nframe=   46 fps=0.5 q=38.7 size=       0KiB time=00:00:01.46 bitrate=   0.2kbits/s speed=0.017x elapsed=0:01:26.48    \nframe=   47 fps=0.5 q=42.3 size=       0KiB time=00:00:01.50 bitrate=   0.2kbits/s speed=0.0172x elapsed=0:01:27.03    \nframe=   47 fps=0.5 q=42.3 size=       0KiB time=00:00:01.50 bitrate=   0.2kbits/s speed=0.0171x elapsed=0:01:27.59    \nframe=   47 fps=0.5 q=42.3 size=       0KiB time=00:00:01.50 bitrate=   0.2kbits/s speed=0.017x elapsed=0:01:28.15    \nframe=   48 fps=0.5 q=44.6 size=       0KiB time=00:00:01.53 bitrate=   0.2kbits/s speed=0.0173x elapsed=0:01:28.68    \nframe=   48 fps=0.5 q=44.6 size=       0KiB time=00:00:01.53 bitrate=   0.2kbits/s speed=0.0172x elapsed=0:01:29.21    \nframe=   48 fps=0.5 q=44.6 size=       0KiB time=00:00:01.53 bitrate=   0.2kbits/s speed=0.0171x elapsed=0:01:29.75    \nframe=   48 fps=0.5 q=44.6 size=       0KiB time=00:00:01.53 bitrate=   0.2kbits/s speed=0.017x elapsed=0:01:30.32    \nframe=   48 fps=0.5 q=44.6 size=       0KiB time=00:00:01.53 bitrate=   0.2kbits/s speed=0.0169x elapsed=0:01:30.93    \nframe=   48 fps=0.5 q=44.6 size=       0KiB time=00:00:01.53 bitrate=   0.2kbits/s speed=0.0167x elapsed=0:01:31.55    \nframe=   48 fps=0.5 q=44.6 size=       0KiB time=00:00:01.53 bitrate=   0.2kbits/s speed=0.0166x elapsed=0:01:32.10    \nframe=   48 fps=0.5 q=44.6 size=       0KiB time=00:00:01.53 bitrate=   0.2kbits/s speed=0.0166x elapsed=0:01:32.63    \nframe=   49 fps=0.5 q=44.4 size=       0KiB time=00:00:01.56 bitrate=   0.2kbits/s speed=0.0168x elapsed=0:01:33.18    \nframe=   49 fps=0.5 q=44.4 size=       0KiB time=00:00:01.56 bitrate=   0.2kbits/s speed=0.0167x elapsed=0:01:33.74    \nframe=   50 fps=0.5 q=38.7 size=       0KiB time=00:00:01.60 bitrate=   0.2kbits/s speed=0.017x elapsed=0:01:34.28    \nframe=   50 fps=0.5 q=38.7 size=       0KiB time=00:00:01.60 bitrate=   0.2kbits/s speed=0.0169x elapsed=0:01:34.82    \nframe=   50 fps=0.5 q=38.7 size=       0KiB time=00:00:01.60 bitrate=   0.2kbits/s speed=0.0168x elapsed=0:01:35.35    \nframe=   51 fps=0.5 q=42.4 size=       0KiB time=00:00:01.63 bitrate=   0.2kbits/s speed=0.017x elapsed=0:01:35.88    \nframe=   51 fps=0.5 q=42.4 size=       0KiB time=00:00:01.63 bitrate=   0.2kbits/s speed=0.0169x elapsed=0:01:36.42    \nframe=   52 fps=0.5 q=44.4 size=       0KiB time=00:00:01.66 bitrate=   0.2kbits/s speed=0.0172x elapsed=0:01:36.94    \nframe=   52 fps=0.5 q=44.4 size=       0KiB time=00:00:01.66 bitrate=   0.2kbits/s speed=0.0171x elapsed=0:01:37.46    \nframe=   52 fps=0.5 q=44.4 size=       0KiB time=00:00:01.66 bitrate=   0.2kbits/s speed=0.017x elapsed=0:01:37.97    \nframe=   53 fps=0.5 q=44.3 size=       0KiB time=00:00:01.70 bitrate=   0.2kbits/s speed=0.0173x elapsed=0:01:38.51    \nframe=   54 fps=0.5 q=38.5 size=       0KiB time=00:00:01.73 bitrate=   0.2kbits/s speed=0.0175x elapsed=0:01:39.03    \nframe=   55 fps=0.6 q=42.3 size=       0KiB time=00:00:01.76 bitrate=   0.2kbits/s speed=0.0177x elapsed=0:01:39.53    \nframe=   55 fps=0.5 q=42.3 size=       0KiB time=00:00:01.76 bitrate=   0.2kbits/s speed=0.0177x elapsed=0:01:40.05    \nframe=   55 fps=0.5 q=42.3 size=       0KiB time=00:00:01.76 bitrate=   0.2kbits/s speed=0.0176x elapsed=0:01:40.57    \nframe=   56 fps=0.6 q=44.3 size=       0KiB time=00:00:01.80 bitrate=   0.2kbits/s speed=0.0178x elapsed=0:01:41.08    \nframe=   57 fps=0.6 q=44.3 size=       0KiB time=00:00:01.83 bitrate=   0.2kbits/s speed=0.018x elapsed=0:01:41.60    \nframe=   58 fps=0.6 q=38.3 size=       0KiB time=00:00:01.86 bitrate=   0.2kbits/s speed=0.0183x elapsed=0:01:42.12    \nframe=   58 fps=0.6 q=38.3 size=       0KiB time=00:00:01.86 bitrate=   0.2kbits/s speed=0.0182x elapsed=0:01:42.66    \nframe=   58 fps=0.6 q=38.3 size=       0KiB time=00:00:01.86 bitrate=   0.2kbits/s speed=0.0181x elapsed=0:01:43.23    \nframe=   60 fps=0.6 q=44.3 size=       0KiB time=00:00:01.93 bitrate=   0.2kbits/s speed=0.0186x elapsed=0:01:43.75    \nframe=   61 fps=0.6 q=44.0 size=       0KiB time=00:00:01.96 bitrate=   0.2kbits/s speed=0.0189x elapsed=0:01:44.29    \nframe=   61 fps=0.6 q=44.0 size=       0KiB time=00:00:01.96 bitrate=   0.2kbits/s speed=0.0188x elapsed=0:01:44.81    \nframe=   61 fps=0.6 q=44.0 size=       0KiB time=00:00:01.96 bitrate=   0.2kbits/s speed=0.0187x elapsed=0:01:45.32    \nframe=   62 fps=0.6 q=44.3 size=       0KiB time=00:00:02.00 bitrate=   0.2kbits/s speed=0.0189x elapsed=0:01:45.83    \nframe=   62 fps=0.6 q=44.3 size=       0KiB time=00:00:02.00 bitrate=   0.2kbits/s speed=0.0188x elapsed=0:01:46.37    \nframe=   63 fps=0.6 q=38.4 size=       0KiB time=00:00:02.03 bitrate=   0.2kbits/s speed=0.019x elapsed=0:01:46.90    \nframe=   63 fps=0.6 q=38.4 size=       0KiB time=00:00:02.03 bitrate=   0.2kbits/s speed=0.0189x elapsed=0:01:47.43    \nframe=   64 fps=0.6 q=42.5 size=       0KiB time=00:00:02.06 bitrate=   0.2kbits/s speed=0.0191x elapsed=0:01:47.94    \nframe=   64 fps=0.6 q=42.5 size=       0KiB time=00:00:02.06 bitrate=   0.2kbits/s speed=0.0191x elapsed=0:01:48.46    \nframe=   64 fps=0.6 q=42.5 size=       0KiB time=00:00:02.06 bitrate=   0.2kbits/s speed=0.019x elapsed=0:01:48.99    \nframe=   65 fps=0.6 q=43.6 size=     256KiB time=00:00:02.10 bitrate= 998.8kbits/s speed=0.0192x elapsed=0:01:49.52    \nframe=   66 fps=0.6 q=43.5 size=     256KiB time=00:00:02.13 bitrate= 983.2kbits/s speed=0.0194x elapsed=0:01:50.04    \nframe=   66 fps=0.6 q=43.5 size=     256KiB time=00:00:02.13 bitrate= 983.2kbits/s speed=0.0193x elapsed=0:01:50.57    \nframe=   66 fps=0.6 q=43.5 size=     256KiB time=00:00:02.13 bitrate= 983.2kbits/s speed=0.0192x elapsed=0:01:51.10    \nframe=   66 fps=0.6 q=43.5 size=     256KiB time=00:00:02.13 bitrate= 983.2kbits/s speed=0.0191x elapsed=0:01:51.61    \nframe=   68 fps=0.6 q=41.6 size=     256KiB time=00:00:02.20 bitrate= 953.4kbits/s speed=0.0196x elapsed=0:01:52.18    \nframe=   68 fps=0.6 q=41.6 size=     256KiB time=00:00:02.20 bitrate= 953.4kbits/s speed=0.0195x elapsed=0:01:52.71    \nframe=   69 fps=0.6 q=43.4 size=     256KiB time=00:00:02.23 bitrate= 939.2kbits/s speed=0.0197x elapsed=0:01:53.24    \nframe=   70 fps=0.6 q=43.4 size=     256KiB time=00:00:02.26 bitrate= 925.4kbits/s speed=0.0199x elapsed=0:01:53.78    \nframe=   70 fps=0.6 q=43.4 size=     256KiB time=00:00:02.26 bitrate= 925.4kbits/s speed=0.0198x elapsed=0:01:54.30    \nframe=   71 fps=0.6 q=38.4 size=     256KiB time=00:00:02.30 bitrate= 912.0kbits/s speed=0.02x elapsed=0:01:54.82    \nframe=   72 fps=0.6 q=41.7 size=     256KiB time=00:00:02.33 bitrate= 898.9kbits/s speed=0.0202x elapsed=0:01:55.34    \nframe=   73 fps=0.6 q=43.4 size=     256KiB time=00:00:02.36 bitrate= 886.3kbits/s speed=0.0204x elapsed=0:01:55.85    \nframe=   73 fps=0.6 q=43.4 size=     256KiB time=00:00:02.36 bitrate= 886.3kbits/s speed=0.0203x elapsed=0:01:56.37    \nframe=   73 fps=0.6 q=43.4 size=     256KiB time=00:00:02.36 bitrate= 886.3kbits/s speed=0.0202x elapsed=0:01:56.88    \nframe=   73 fps=0.6 q=43.4 size=     256KiB time=00:00:02.36 bitrate= 886.3kbits/s speed=0.0202x elapsed=0:01:57.41    \nframe=   74 fps=0.6 q=43.5 size=     256KiB time=00:00:02.40 bitrate= 874.0kbits/s speed=0.0204x elapsed=0:01:57.93    \nframe=   74 fps=0.6 q=43.5 size=     256KiB time=00:00:02.40 bitrate= 874.0kbits/s speed=0.0203x elapsed=0:01:58.44    \nframe=   75 fps=0.6 q=38.4 size=     256KiB time=00:00:02.43 bitrate= 862.0kbits/s speed=0.0205x elapsed=0:01:58.97    \nframe=   75 fps=0.6 q=38.4 size=     256KiB time=00:00:02.43 bitrate= 862.0kbits/s speed=0.0204x elapsed=0:01:59.52    \nframe=   75 fps=0.6 q=38.4 size=     256KiB time=00:00:02.43 bitrate= 862.0kbits/s speed=0.0203x elapsed=0:02:00.07    \nframe=   75 fps=0.6 q=38.4 size=     256KiB time=00:00:02.43 bitrate= 862.0kbits/s speed=0.0202x elapsed=0:02:00.59    \nframe=   76 fps=0.6 q=41.4 size=     256KiB time=00:00:02.46 bitrate= 850.3kbits/s speed=0.0204x elapsed=0:02:01.11    \nframe=   77 fps=0.6 q=43.6 size=     256KiB time=00:00:02.50 bitrate= 839.0kbits/s speed=0.0206x elapsed=0:02:01.63    \nframe=   77 fps=0.6 q=43.6 size=     256KiB time=00:00:02.50 bitrate= 839.0kbits/s speed=0.0205x elapsed=0:02:02.16    \nframe=   78 fps=0.6 q=43.5 size=     256KiB time=00:00:02.53 bitrate= 828.0kbits/s speed=0.0206x elapsed=0:02:02.68    \nframe=   78 fps=0.6 q=43.5 size=     256KiB time=00:00:02.53 bitrate= 828.0kbits/s speed=0.0206x elapsed=0:02:03.20    \nframe=   78 fps=0.6 q=43.5 size=     256KiB time=00:00:02.53 bitrate= 828.0kbits/s speed=0.0205x elapsed=0:02:03.71    \nframe=   78 fps=0.6 q=43.5 size=     256KiB time=00:00:02.53 bitrate= 828.0kbits/s speed=0.0204x elapsed=0:02:04.23    \nframe=   79 fps=0.6 q=38.6 size=     256KiB time=00:00:02.56 bitrate= 817.2kbits/s speed=0.0206x elapsed=0:02:04.78    \nframe=   80 fps=0.6 q=41.8 size=     256KiB time=00:00:02.60 bitrate= 806.7kbits/s speed=0.0207x elapsed=0:02:05.30    \nframe=   82 fps=0.7 q=43.6 size=     256KiB time=00:00:02.66 bitrate= 786.6kbits/s speed=0.0212x elapsed=0:02:05.84    \nframe=   82 fps=0.6 q=43.6 size=     256KiB time=00:00:02.66 bitrate= 786.6kbits/s speed=0.0211x elapsed=0:02:06.38    \nframe=   82 fps=0.6 q=43.6 size=     256KiB time=00:00:02.66 bitrate= 786.6kbits/s speed=0.021x elapsed=0:02:06.91    \nframe=   82 fps=0.6 q=43.6 size=     256KiB time=00:00:02.66 bitrate= 786.6kbits/s speed=0.0209x elapsed=0:02:07.46    \nframe=   83 fps=0.6 q=38.6 size=     256KiB time=00:00:02.70 bitrate= 776.9kbits/s speed=0.0211x elapsed=0:02:07.97    \nframe=   84 fps=0.7 q=42.2 size=     256KiB time=00:00:02.73 bitrate= 767.4kbits/s speed=0.0213x elapsed=0:02:08.50    \nframe=   85 fps=0.7 q=44.2 size=     256KiB time=00:00:02.76 bitrate= 758.1kbits/s speed=0.0214x elapsed=0:02:09.02    \nframe=   85 fps=0.7 q=44.2 size=     256KiB time=00:00:02.76 bitrate= 758.1kbits/s speed=0.0214x elapsed=0:02:09.54    \nframe=   85 fps=0.7 q=44.2 size=     256KiB time=00:00:02.76 bitrate= 758.1kbits/s speed=0.0213x elapsed=0:02:10.06    \nframe=   86 fps=0.7 q=44.3 size=     256KiB time=00:00:02.80 bitrate= 749.1kbits/s speed=0.0214x elapsed=0:02:10.58    \nframe=   86 fps=0.7 q=44.3 size=     256KiB time=00:00:02.80 bitrate= 749.1kbits/s speed=0.0214x elapsed=0:02:11.10    \nframe=   87 fps=0.7 q=38.8 size=     256KiB time=00:00:02.83 bitrate= 740.3kbits/s speed=0.0215x elapsed=0:02:11.63    \nframe=   87 fps=0.7 q=38.8 size=     256KiB time=00:00:02.83 bitrate= 740.3kbits/s speed=0.0214x elapsed=0:02:12.15    \nframe=   87 fps=0.7 q=38.8 size=     256KiB time=00:00:02.83 bitrate= 740.3kbits/s speed=0.0214x elapsed=0:02:12.66    \nframe=   88 fps=0.7 q=42.4 size=     256KiB time=00:00:02.86 bitrate= 731.7kbits/s speed=0.0215x elapsed=0:02:13.18    \nframe=   88 fps=0.7 q=42.4 size=     256KiB time=00:00:02.86 bitrate= 731.7kbits/s speed=0.0214x elapsed=0:02:13.70    \nframe=   89 fps=0.7 q=44.3 size=     256KiB time=00:00:02.90 bitrate= 723.3kbits/s speed=0.0216x elapsed=0:02:14.22    \nframe=   89 fps=0.7 q=44.3 size=     256KiB time=00:00:02.90 bitrate= 723.3kbits/s speed=0.0215x elapsed=0:02:14.76    \nframe=   89 fps=0.7 q=44.3 size=     256KiB time=00:00:02.90 bitrate= 723.3kbits/s speed=0.0214x elapsed=0:02:15.30    \nframe=   90 fps=0.7 q=44.5 size=     256KiB time=00:00:02.93 bitrate= 715.1kbits/s speed=0.0216x elapsed=0:02:15.80    \nframe=   91 fps=0.7 q=38.8 size=     256KiB time=00:00:02.96 bitrate= 707.0kbits/s speed=0.0218x elapsed=0:02:16.32    \nframe=   91 fps=0.7 q=38.8 size=     256KiB time=00:00:02.96 bitrate= 707.0kbits/s speed=0.0217x elapsed=0:02:16.85    \nframe=   92 fps=0.7 q=42.5 size=     256KiB time=00:00:03.00 bitrate= 699.2kbits/s speed=0.0218x elapsed=0:02:17.37    \nframe=   92 fps=0.7 q=42.5 size=     256KiB time=00:00:03.00 bitrate= 699.2kbits/s speed=0.0218x elapsed=0:02:17.90    \nframe=   92 fps=0.7 q=42.5 size=     256KiB time=00:00:03.00 bitrate= 699.2kbits/s speed=0.0217x elapsed=0:02:18.41    \nframe=   93 fps=0.7 q=44.5 size=     256KiB time=00:00:03.03 bitrate= 691.5kbits/s speed=0.0218x elapsed=0:02:18.93    \nframe=   94 fps=0.7 q=44.6 size=     256KiB time=00:00:03.06 bitrate= 684.0kbits/s speed=0.022x elapsed=0:02:19.45    \nframe=   95 fps=0.7 q=38.7 size=     256KiB time=00:00:03.10 bitrate= 676.6kbits/s speed=0.0221x elapsed=0:02:19.99    \nframe=   95 fps=0.7 q=38.7 size=     256KiB time=00:00:03.10 bitrate= 676.6kbits/s speed=0.0221x elapsed=0:02:20.51    \nframe=   96 fps=0.7 q=42.5 size=     256KiB time=00:00:03.13 bitrate= 669.4kbits/s speed=0.0222x elapsed=0:02:21.03    \nframe=   97 fps=0.7 q=44.4 size=     256KiB time=00:00:03.16 bitrate= 662.4kbits/s speed=0.0224x elapsed=0:02:21.54    \nframe=   97 fps=0.7 q=44.4 size=     256KiB time=00:00:03.16 bitrate= 662.4kbits/s speed=0.0223x elapsed=0:02:22.06    \nframe=   97 fps=0.7 q=44.4 size=     256KiB time=00:00:03.16 bitrate= 662.4kbits/s speed=0.0222x elapsed=0:02:22.56    \nframe=   98 fps=0.7 q=44.4 size=     256KiB time=00:00:03.20 bitrate= 655.5kbits/s speed=0.0224x elapsed=0:02:23.09    \nframe=   99 fps=0.7 q=38.4 size=     256KiB time=00:00:03.23 bitrate= 648.7kbits/s speed=0.0225x elapsed=0:02:23.61    \nframe=  100 fps=0.7 q=42.5 size=     256KiB time=00:00:03.26 bitrate= 642.1kbits/s speed=0.0227x elapsed=0:02:24.12    \nframe=  101 fps=0.7 q=44.5 size=     256KiB time=00:00:03.30 bitrate= 635.6kbits/s speed=0.0228x elapsed=0:02:24.62    \nframe=  101 fps=0.7 q=44.5 size=     256KiB time=00:00:03.30 bitrate= 635.6kbits/s speed=0.0227x elapsed=0:02:25.17    \nframe=  101 fps=0.7 q=44.5 size=     256KiB time=00:00:03.30 bitrate= 635.6kbits/s speed=0.0227x elapsed=0:02:25.68    \nframe=  101 fps=0.7 q=44.5 size=     256KiB time=00:00:03.30 bitrate= 635.6kbits/s speed=0.0226x elapsed=0:02:26.24    \nframe=  101 fps=0.7 q=44.5 size=     256KiB time=00:00:03.30 bitrate= 635.6kbits/s speed=0.0225x elapsed=0:02:26.82    \nframe=  102 fps=0.7 q=44.4 size=     256KiB time=00:00:03.33 bitrate= 629.3kbits/s speed=0.0226x elapsed=0:02:27.34    \nframe=  102 fps=0.7 q=44.4 size=     256KiB time=00:00:03.33 bitrate= 629.3kbits/s speed=0.0225x elapsed=0:02:27.86    \nframe=  103 fps=0.7 q=38.5 size=     256KiB time=00:00:03.36 bitrate= 623.0kbits/s speed=0.0227x elapsed=0:02:28.38    \nframe=  104 fps=0.7 q=42.5 size=     256KiB time=00:00:03.40 bitrate= 616.9kbits/s speed=0.0228x elapsed=0:02:28.90    \nframe=  104 fps=0.7 q=42.5 size=     256KiB time=00:00:03.40 bitrate= 616.9kbits/s speed=0.0228x elapsed=0:02:29.43    \nframe=  105 fps=0.7 q=44.5 size=     256KiB time=00:00:03.43 bitrate= 610.9kbits/s speed=0.0229x elapsed=0:02:29.95    \nframe=  106 fps=0.7 q=44.6 size=     256KiB time=00:00:03.46 bitrate= 605.0kbits/s speed=0.023x elapsed=0:02:30.47    \nframe=  107 fps=0.7 q=38.7 size=     256KiB time=00:00:03.50 bitrate= 599.3kbits/s speed=0.0232x elapsed=0:02:30.97    \nframe=  109 fps=0.7 q=44.6 size=     256KiB time=00:00:03.56 bitrate= 588.1kbits/s speed=0.0235x elapsed=0:02:31.50    \nframe=  109 fps=0.7 q=44.6 size=     256KiB time=00:00:03.56 bitrate= 588.1kbits/s speed=0.0235x elapsed=0:02:32.01    \nframe=  110 fps=0.7 q=44.6 size=     256KiB time=00:00:03.60 bitrate= 582.6kbits/s speed=0.0236x elapsed=0:02:32.52    \nframe=  112 fps=0.7 q=42.6 size=     256KiB time=00:00:03.66 bitrate= 572.0kbits/s speed=0.024x elapsed=0:02:33.04    \nframe=  113 fps=0.7 q=44.6 size=     256KiB time=00:00:03.70 bitrate= 566.9kbits/s speed=0.0241x elapsed=0:02:33.56    \nframe=  113 fps=0.7 q=44.6 size=     256KiB time=00:00:03.70 bitrate= 566.9kbits/s speed=0.024x elapsed=0:02:34.07    \nframe=  114 fps=0.7 q=45.1 size=     256KiB time=00:00:03.73 bitrate= 561.8kbits/s speed=0.0242x elapsed=0:02:34.58    \nframe=  116 fps=0.7 q=42.7 size=     256KiB time=00:00:03.80 bitrate= 552.0kbits/s speed=0.0245x elapsed=0:02:35.10    \nframe=  116 fps=0.7 q=42.7 size=     256KiB time=00:00:03.80 bitrate= 552.0kbits/s speed=0.0244x elapsed=0:02:35.61    \nframe=  117 fps=0.7 q=44.6 size=     256KiB time=00:00:03.83 bitrate= 547.2kbits/s speed=0.0246x elapsed=0:02:36.13    \nframe=  118 fps=0.8 q=45.3 size=     256KiB time=00:00:03.86 bitrate= 542.5kbits/s speed=0.0247x elapsed=0:02:36.65    \nframe=  119 fps=0.8 q=38.7 size=     256KiB time=00:00:03.90 bitrate= 537.8kbits/s speed=0.0248x elapsed=0:02:37.16    \nframe=  120 fps=0.8 q=42.7 size=     256KiB time=00:00:03.93 bitrate= 533.3kbits/s speed=0.0249x elapsed=0:02:37.68    \nframe=  121 fps=0.8 q=45.3 size=     256KiB time=00:00:03.96 bitrate= 528.8kbits/s speed=0.0251x elapsed=0:02:38.20    \nframe=  122 fps=0.8 q=45.4 size=     256KiB time=00:00:04.00 bitrate= 524.4kbits/s speed=0.0252x elapsed=0:02:38.70    \nframe=  123 fps=0.8 q=38.9 size=     256KiB time=00:00:04.03 bitrate= 520.0kbits/s speed=0.0253x elapsed=0:02:39.23    \nframe=  124 fps=0.8 q=42.6 size=     256KiB time=00:00:04.06 bitrate= 515.8kbits/s speed=0.0255x elapsed=0:02:39.74    \nframe=  124 fps=0.8 q=42.6 size=     256KiB time=00:00:04.06 bitrate= 515.8kbits/s speed=0.0254x elapsed=0:02:40.27    \nframe=  125 fps=0.8 q=44.5 size=     256KiB time=00:00:04.10 bitrate= 511.6kbits/s speed=0.0255x elapsed=0:02:40.78    \nframe=  125 fps=0.8 q=44.5 size=     256KiB time=00:00:04.10 bitrate= 511.6kbits/s speed=0.0254x elapsed=0:02:41.31    \nframe=  126 fps=0.8 q=44.6 size=     256KiB time=00:00:04.13 bitrate= 507.5kbits/s speed=0.0255x elapsed=0:02:41.83    \nframe=  128 fps=0.8 q=42.7 size=     512KiB time=00:00:04.20 bitrate= 998.7kbits/s speed=0.0259x elapsed=0:02:42.33    \nframe=  129 fps=0.8 q=44.4 size=     512KiB time=00:00:04.23 bitrate= 990.9kbits/s speed=0.026x elapsed=0:02:42.85    \nframe=  129 fps=0.8 q=44.4 size=     512KiB time=00:00:04.23 bitrate= 990.9kbits/s speed=0.0259x elapsed=0:02:43.37    \nframe=  129 fps=0.8 q=44.4 size=     512KiB time=00:00:04.23 bitrate= 990.9kbits/s speed=0.0258x elapsed=0:02:43.89    \nframe=  129 fps=0.8 q=44.4 size=     512KiB time=00:00:04.23 bitrate= 990.9kbits/s speed=0.0257x elapsed=0:02:44.42    \nframe=  130 fps=0.8 q=44.5 size=     512KiB time=00:00:04.26 bitrate= 983.1kbits/s speed=0.0259x elapsed=0:02:44.94    \nframe=  131 fps=0.8 q=38.6 size=     512KiB time=00:00:04.30 bitrate= 975.5kbits/s speed=0.026x elapsed=0:02:45.47    \nframe=  131 fps=0.8 q=38.6 size=     512KiB time=00:00:04.30 bitrate= 975.5kbits/s speed=0.0259x elapsed=0:02:46.01    \nframe=  131 fps=0.8 q=38.6 size=     512KiB time=00:00:04.30 bitrate= 975.5kbits/s speed=0.0258x elapsed=0:02:46.54    \nframe=  132 fps=0.8 q=42.5 size=     512KiB time=00:00:04.33 bitrate= 968.0kbits/s speed=0.0259x elapsed=0:02:47.08    \nframe=  132 fps=0.8 q=42.5 size=     512KiB time=00:00:04.33 bitrate= 968.0kbits/s speed=0.0259x elapsed=0:02:47.60    \nframe=  133 fps=0.8 q=44.2 size=     512KiB time=00:00:04.36 bitrate= 960.6kbits/s speed=0.026x elapsed=0:02:48.13    \nframe=  134 fps=0.8 q=44.3 size=     512KiB time=00:00:04.40 bitrate= 953.3kbits/s speed=0.0261x elapsed=0:02:48.64    \nframe=  135 fps=0.8 q=38.3 size=     512KiB time=00:00:04.43 bitrate= 946.2kbits/s speed=0.0262x elapsed=0:02:49.16    \nframe=  136 fps=0.8 q=42.4 size=     512KiB time=00:00:04.46 bitrate= 939.1kbits/s speed=0.0263x elapsed=0:02:49.68    \nframe=  136 fps=0.8 q=42.4 size=     512KiB time=00:00:04.46 bitrate= 939.1kbits/s speed=0.0262x elapsed=0:02:50.20    \nframe=  136 fps=0.8 q=42.4 size=     512KiB time=00:00:04.46 bitrate= 939.1kbits/s speed=0.0262x elapsed=0:02:50.75    \nframe=  137 fps=0.8 q=44.1 size=     512KiB time=00:00:04.50 bitrate= 932.1kbits/s speed=0.0263x elapsed=0:02:51.26    \nframe=  137 fps=0.8 q=44.1 size=     512KiB time=00:00:04.50 bitrate= 932.1kbits/s speed=0.0262x elapsed=0:02:51.78    \nframe=  137 fps=0.8 q=44.1 size=     512KiB time=00:00:04.50 bitrate= 932.1kbits/s speed=0.0261x elapsed=0:02:52.33    \nframe=  138 fps=0.8 q=44.1 size=     512KiB time=00:00:04.53 bitrate= 925.3kbits/s speed=0.0262x elapsed=0:02:52.87    \nframe=  138 fps=0.8 q=44.1 size=     512KiB time=00:00:04.53 bitrate= 925.3kbits/s speed=0.0261x elapsed=0:02:53.40    \nframe=  139 fps=0.8 q=38.4 size=     512KiB time=00:00:04.56 bitrate= 918.5kbits/s speed=0.0263x elapsed=0:02:53.93    \nframe=  140 fps=0.8 q=41.7 size=     512KiB time=00:00:04.60 bitrate= 911.9kbits/s speed=0.0264x elapsed=0:02:54.44    \nframe=  141 fps=0.8 q=43.4 size=     512KiB time=00:00:04.63 bitrate= 905.3kbits/s speed=0.0265x elapsed=0:02:54.97    \nframe=  141 fps=0.8 q=43.4 size=     512KiB time=00:00:04.63 bitrate= 905.3kbits/s speed=0.0264x elapsed=0:02:55.49    \nframe=  142 fps=0.8 q=43.5 size=     512KiB time=00:00:04.66 bitrate= 898.9kbits/s speed=0.0265x elapsed=0:02:56.01    \nframe=  142 fps=0.8 q=43.5 size=     512KiB time=00:00:04.66 bitrate= 898.9kbits/s speed=0.0264x elapsed=0:02:56.53    \nframe=  142 fps=0.8 q=43.5 size=     512KiB time=00:00:04.66 bitrate= 898.9kbits/s speed=0.0264x elapsed=0:02:57.07    \nframe=  142 fps=0.8 q=43.5 size=     512KiB time=00:00:04.66 bitrate= 898.9kbits/s speed=0.0263x elapsed=0:02:57.59    \nframe=  143 fps=0.8 q=38.5 size=     512KiB time=00:00:04.70 bitrate= 892.5kbits/s speed=0.0264x elapsed=0:02:58.10    \nframe=  144 fps=0.8 q=41.3 size=     512KiB time=00:00:04.73 bitrate= 886.2kbits/s speed=0.0265x elapsed=0:02:58.62    \nframe=  145 fps=0.8 q=43.2 size=     512KiB time=00:00:04.76 bitrate= 880.0kbits/s speed=0.0266x elapsed=0:02:59.15    \nframe=  145 fps=0.8 q=43.2 size=     512KiB time=00:00:04.76 bitrate= 880.0kbits/s speed=0.0265x elapsed=0:02:59.67    \nframe=  146 fps=0.8 q=41.5 size=     512KiB time=00:00:04.80 bitrate= 873.9kbits/s speed=0.0266x elapsed=0:03:00.18    \nframe=  147 fps=0.8 q=38.7 size=     512KiB time=00:00:04.83 bitrate= 867.9kbits/s speed=0.0267x elapsed=0:03:00.71    \nframe=  147 fps=0.8 q=38.7 size=     512KiB time=00:00:04.83 bitrate= 867.9kbits/s speed=0.0267x elapsed=0:03:01.25    \nframe=  147 fps=0.8 q=38.7 size=     512KiB time=00:00:04.83 bitrate= 867.9kbits/s speed=0.0266x elapsed=0:03:01.77    \nframe=  148 fps=0.8 q=40.0 size=     512KiB time=00:00:04.86 bitrate= 861.9kbits/s speed=0.0267x elapsed=0:03:02.29    \n[mp4 @ 00000276912faa80] Starting second pass: moving the moov atom to the beginning of the file\n[out#0/mp4 @ 00000276912fa980] video:600KiB audio:0KiB subtitle:0KiB other streams:0KiB global headers:2KiB muxing overhead: 0.859677%\nframe=  150 fps=0.8 q=41.2 Lsize=     605KiB time=00:00:04.93 bitrate=1004.5kbits/s speed=0.027x elapsed=0:03:02.52    \nx265 [info]: frame I:      1, Avg QP:41.16  kb/s: 3376.80 \nx265 [info]: frame P:     36, Avg QP:39.08  kb/s: 2329.93 \nx265 [info]: frame B:    113, Avg QP:43.85  kb/s: 531.03  \nx265 [info]: Weighted P-Frames: Y:2.8% UV:2.8%\n\nencoded 150 frames in 182.04s (0.82 fps), 981.73 kb/s, Avg QP:42.69\n",
  "seconds": 182.96929359436035,
  "probe_out": {}
}